<svg width="44" height="31" viewBox="0 0 44 31" fill="none" xmlns="http://www.w3.org/2000/svg">
<path d="M8.83984 28.6152C10.5977 27.8014 12.1602 26.6458 13.5273 25.1484C14.8945 23.651 15.8385 22.0723 16.3594 20.4121C16.7174 19.2402 16.8965 18.1335 16.8965 17.0918C16.8965 16.4408 16.8151 15.7083 16.6523 14.8945C14.862 16.9779 12.4206 18.0195 9.32812 18.0195C6.65885 18.0195 4.52669 17.2708 2.93164 15.7734C1.33659 14.2435 0.539062 12.1276 0.539062 9.42578C0.539062 6.82161 1.40169 4.73828 3.12695 3.17578C4.85221 1.58073 7.11458 0.783203 9.91406 0.783203C11.6719 0.783203 13.2344 1.10872 14.6016 1.75977C15.9688 2.37826 17.043 3.28971 17.8242 4.49414C18.5729 5.4707 19.1751 6.80534 19.6309 8.49805C20.0866 10.1908 20.3145 12.0299 20.3145 14.0156C20.3145 17.4987 19.4193 20.7051 17.6289 23.6348C15.8385 26.5645 13.2018 28.8268 9.71875 30.4219L8.83984 28.6152ZM31.8379 28.6152C33.5957 27.8014 35.1582 26.6458 36.5254 25.1484C37.8926 23.651 38.8366 22.0723 39.3574 20.4121C39.7155 19.2402 39.8945 18.1335 39.8945 17.0918C39.8945 16.4408 39.8132 15.7083 39.6504 14.8945C37.86 16.9779 35.4186 18.0195 32.3262 18.0195C29.6569 18.0195 27.5247 17.2708 25.9297 15.7734C24.3346 14.2435 23.5371 12.1276 23.5371 9.42578C23.5371 6.82161 24.3997 4.73828 26.125 3.17578C27.8503 1.58073 30.1289 0.783203 32.9609 0.783203C34.6862 0.783203 36.2324 1.10872 37.5996 1.75977C38.9668 2.37826 40.041 3.28971 40.8223 4.49414C41.571 5.50326 42.1732 6.85417 42.6289 8.54688C43.1172 10.207 43.3613 12.0299 43.3613 14.0156C43.3613 17.4987 42.4499 20.7051 40.627 23.6348C38.8366 26.5645 36.1999 28.8268 32.7168 30.4219L31.8379 28.6152Z" fill="#A380DB"/>
</svg>
