<svg width="44" height="30" viewBox="0 0 44 30" fill="none" xmlns="http://www.w3.org/2000/svg">
<path d="M11.0625 29.6406C16.6777 29.6406 20.4863 26.2227 20.4863 20.998C20.4863 15.5293 16.9707 12.4043 11.6973 12.4043C8.57227 12.4043 6.08203 13.5273 4.37305 15.5293C4.22656 14.7969 4.12891 14.0645 4.12891 13.332C4.12891 12.2578 4.32422 11.1348 4.66602 10.0117C5.69141 6.74023 8.66992 3.41992 12.1855 1.80859L11.3066 0.00195312C4.08008 3.32227 0.662109 9.71875 0.662109 16.4082C0.662109 20.5098 1.78516 24.0254 3.20117 25.9297C4.76367 28.3223 7.5957 29.6406 11.0625 29.6406ZM34.1094 29.6406C39.6758 29.6406 43.4844 26.2227 43.4844 20.998C43.4844 15.5293 39.9688 12.4043 34.6953 12.4043C31.5703 12.4043 29.0801 13.5273 27.3711 15.5293C27.2246 14.7969 27.127 14.0645 27.127 13.332C27.127 12.2578 27.3223 11.1348 27.6641 10.0117C28.6895 6.74023 31.668 3.41992 35.1836 1.80859L34.3047 0.00195312C27.0781 3.32227 23.709 9.71875 23.709 16.4082C23.709 20.5098 24.7832 24.0254 26.1992 25.9297C27.7617 28.3223 30.5938 29.6406 34.1094 29.6406Z" fill="#A380DB"/>
</svg>
