<?xml version="1.0" standalone="no"?>
<!DOCTYPE svg PUBLIC "-//W3C//DTD SVG 20010904//EN"
 "http://www.w3.org/TR/2001/REC-SVG-20010904/DTD/svg10.dtd">
<svg version="1.0" xmlns="http://www.w3.org/2000/svg"
 width="500.000000pt" height="500.000000pt" viewBox="0 0 500.000000 500.000000"
 preserveAspectRatio="xMidYMid meet">
<metadata>
Created by potrace 1.11, written by Peter Selinger 2001-2013
</metadata>
<g transform="translate(0.000000,500.000000) scale(0.100000,-0.100000)"
fill="#000000" stroke="none">
<path d="M1413 4251 c-135 -39 -263 -123 -341 -224 -35 -44 -822 -1522 -954
-1789 -21 -43 -51 -121 -66 -175 -24 -89 -27 -113 -27 -273 0 -192 14 -266 76
-416 71 -171 227 -363 376 -462 370 -248 826 -252 1194 -10 252 167 433 450
470 738 6 47 13 94 15 105 7 39 74 104 142 137 66 33 68 33 207 33 134 0 142
-1 197 -29 31 -15 75 -48 98 -71 41 -42 43 -46 51 -133 43 -420 322 -772 722
-908 213 -72 471 -73 683 0 160 54 292 138 415 263 124 126 202 250 255 407
73 213 72 471 -1 687 -28 83 -919 1777 -981 1866 -127 179 -350 285 -570 270
-230 -16 -435 -151 -534 -352 -51 -102 -70 -179 -70 -278 0 -71 -2 -78 -17
-72 -63 26 -121 37 -218 42 -91 5 -124 2 -190 -15 -44 -11 -87 -23 -96 -27
-14 -5 -17 7 -22 92 -17 284 -198 511 -471 590 -99 29 -250 31 -343 4z m2150
-339 c34 -17 77 -46 94 -64 29 -30 558 -1016 549 -1025 -2 -2 -32 3 -67 12
-323 76 -700 -29 -952 -265 l-64 -59 -12 287 c-6 158 -16 402 -22 542 -13 287
-10 348 19 412 23 53 80 119 126 148 93 57 227 62 329 12z m-1859 8 c100 -38
186 -136 205 -233 5 -30 0 -234 -15 -569 -13 -288 -23 -541 -24 -562 l0 -39
-57 54 c-155 146 -346 240 -562 275 -110 18 -284 14 -391 -10 -36 -7 -67 -12
-68 -11 -2 2 112 221 255 486 285 534 307 566 413 607 73 28 171 29 244 2z
m960 -669 c34 -16 75 -44 91 -61 l30 -31 21 -487 c12 -268 20 -488 19 -490 -2
-2 -19 4 -39 12 -148 62 -422 60 -572 -5 l-46 -19 6 47 c3 27 13 246 23 487
l17 440 30 34 c97 111 279 143 420 73z m-1388 -742 c188 -47 366 -184 468
-360 41 -72 75 -180 88 -283 28 -225 -63 -473 -232 -630 -367 -339 -949 -238
-1180 206 -58 111 -81 209 -81 343 0 134 23 232 81 343 164 315 509 469 856
381z m2801 11 c171 -39 355 -162 451 -302 155 -226 179 -517 63 -761 -93 -194
-287 -352 -496 -403 -95 -24 -277 -23 -364 0 -293 79 -505 308 -556 601 -19
110 -19 150 0 260 65 372 396 640 767 620 48 -3 108 -10 135 -15z"/>
</g>
</svg>
